<?xml version="1.0" standalone="no"?>
<!DOCTYPE svg PUBLIC "-//W3C//DTD SVG 20010904//EN"
 "http://www.w3.org/TR/2001/REC-SVG-20010904/DTD/svg10.dtd">
<svg version="1.0" xmlns="http://www.w3.org/2000/svg"
 width="800.000000pt" height="1430.000000pt" viewBox="0 0 800.000000 1430.000000"
 preserveAspectRatio="xMidYMid meet">

<g transform="translate(0.000000,1430.000000) scale(0.100000,-0.100000)"
fill="#000000" stroke="none">
<path d="M1530 14129 c-33 -13 -78 -57 -97 -94 -22 -42 -20 -125 4 -172 11
-21 39 -51 62 -68 36 -26 52 -30 104 -30 97 0 166 55 187 152 18 78 -33 178
-107 209 -37 16 -116 17 -153 3z"/>
<path d="M4392 12779 c-66 -33 -97 -87 -97 -169 0 -81 26 -127 96 -165 136
-73 296 40 275 193 -17 128 -156 199 -274 141z"/>
<path d="M2665 12024 c-230 -56 -356 -308 -259 -522 90 -201 314 -285 510
-193 232 108 294 408 123 595 -63 69 -122 103 -207 121 -80 17 -90 17 -167 -1z"/>
<path d="M2191 10298 c-46 -13 -115 -61 -144 -101 -86 -116 -74 -269 28 -373
91 -92 -78 -84 1832 -84 1543 0 1686 1 1725 17 63 24 120 74 153 134 26 47 30
64 30 134 0 70 -4 87 -30 133 -32 59 -66 91 -129 125 l-41 22 -1695 2 c-1095
1 -1707 -2 -1729 -9z"/>
<path d="M2600 8880 c0 -215 -58 -457 -160 -665 -132 -270 -343 -519 -600
-705 -351 -255 -449 -336 -651 -541 -613 -619 -996 -1431 -1095 -2319 -21
-190 -24 -599 -6 -780 75 -736 329 -1399 757 -1976 119 -160 242 -299 411
-464 603 -589 1360 -952 2204 -1056 198 -25 552 -29 770 -10 665 58 1297 286
1839 663 272 190 608 503 802 748 485 611 758 1278 845 2060 23 205 23 599 0
800 -57 508 -175 910 -398 1355 -217 434 -512 824 -858 1135 -155 139 -235
202 -431 341 -118 83 -188 142 -299 254 -175 175 -255 284 -355 485 -110 221
-154 390 -162 623 l-6 142 -1303 0 -1304 0 0 -90z m2416 -3100 c487 -39 919
-210 1293 -513 119 -96 556 -533 623 -622 78 -104 151 -255 184 -380 100 -376
-83 -1131 -412 -1701 -320 -555 -808 -1020 -1366 -1300 -901 -453 -1960 -454
-2861 -3 -549 276 -1022 718 -1347 1259 -200 332 -372 784 -402 1052 -19 170
15 366 87 509 105 206 317 397 547 491 159 64 242 79 503 88 441 16 604 66
1005 312 113 69 340 208 505 309 337 206 510 299 667 357 317 119 649 167 974
142z"/>
<path d="M4668 5010 c-155 -19 -318 -67 -463 -135 -49 -23 -225 -124 -390
-225 -682 -416 -765 -465 -865 -515 -323 -161 -614 -230 -1025 -242 -247 -7
-289 -17 -365 -92 -87 -84 -88 -134 -9 -372 160 -477 454 -898 844 -1208 337
-268 728 -438 1167 -508 174 -27 540 -25 712 5 516 89 948 305 1313 655 263
253 446 515 588 842 113 260 196 588 199 780 2 138 -5 148 -285 423 -130 128
-268 257 -305 286 -186 143 -395 237 -634 286 -118 24 -368 35 -482 20z"/>
</g>
</svg>
