<?xml version="1.0" encoding="UTF-8"?>
<svg version="1.1" xmlns="http://www.w3.org/2000/svg" width="2000" height="3576">
<path d="M0 0 C215.16 0 430.32 0 652 0 C652.66 16.5 653.32 33 654 50 C654.77395935 58.78443862 655.56499125 67.33512385 657 76 C657.19577637 77.18368164 657.39155273 78.36736328 657.59326172 79.58691406 C664.03475509 117.34938603 675.26518397 153.51337094 692 188 C692.36335449 188.75700195 692.72670898 189.51400391 693.10107422 190.29394531 C712.6740147 230.9764286 738.94535226 267.49065506 769.62011719 300.50244141 C771.01324226 302.01437155 772.38722651 303.54184759 773.7578125 305.07421875 C785.63834367 318.28481284 798.76482015 330.21290918 812.36767578 341.62060547 C813.95554841 342.96243621 815.52486536 344.32298556 817.08984375 345.69140625 C833.33300909 359.82239341 851.3198129 371.77033979 869 384 C894.46069793 401.61599292 918.95002183 420.68775329 942.3984375 440.90234375 C944.74782976 442.92744119 947.1067514 444.9402473 949.4765625 446.94140625 C957.51119516 453.74107561 965.24434827 460.81063409 972.89477539 468.03833008 C974.43154694 469.4703096 975.9821947 470.88743892 977.54077148 472.2956543 C985.81728684 479.78064381 993.74141749 487.58806941 1001.61987305 495.48950195 C1003.8229211 497.69794663 1006.03131469 499.90094551 1008.24023438 502.10351562 C1009.66698765 503.53092924 1011.09343095 504.95865277 1012.51953125 506.38671875 C1013.16759232 507.03275558 1013.81565338 507.67879242 1014.48335266 508.34440613 C1018.2773684 512.15766694 1021.890658 516.07879254 1025.39680481 520.15869141 C1028.12933697 523.29707092 1031.01284838 526.29283561 1033.875 529.3125 C1038.79040063 534.53466634 1043.44520096 539.84899232 1047.921875 545.453125 C1050.05718453 548.0700833 1052.28530363 550.56842779 1054.5625 553.0625 C1058.13765575 556.99517133 1061.50891266 561.03235465 1064.796875 565.20703125 C1066.39843157 567.23737335 1068.01117784 569.2540487 1069.640625 571.26171875 C1092.6275172 599.64069477 1114.35446635 629.55314629 1133.53466797 660.63427734 C1135.03236895 663.05225843 1136.54758407 665.45851933 1138.06640625 667.86328125 C1151.25999892 688.83436425 1163.3733982 710.37750691 1174.66796875 732.42578125 C1175.91135586 734.82869064 1177.1816356 737.21403688 1178.46875 739.59375 C1198.21991561 776.16983436 1213.79178859 814.99369817 1228 854 C1228.25954468 854.70991089 1228.51908936 855.41982178 1228.78649902 856.15124512 C1258.89660551 938.63425282 1276.25751267 1026.0043946 1285 1192 C1284.9870993 1192.97338318 1284.9870993 1192.97338318 1284.97393799 1193.96643066 C1283.76451018 1284.27212285 1271.48431847 1374.3802754 1238.66674805 1484.94366455 C1237.99460878 1487.01662722 1237.32943607 1489.09171242 1236.66601562 1491.16748047 C1223.83062147 1531.25980307 1207.88895365 1569.89949375 1190 1608 C1189.55914063 1608.94488281 1189.11828125 1609.88976563 1188.6640625 1610.86328125 C1183.18739442 1622.59662771 1177.45321417 1634.15355605 1171.31396484 1645.5546875 C1169.9663789 1648.06256947 1168.63349453 1650.57793802 1167.30078125 1653.09375 C1159.70602368 1667.32521387 1151.40142786 1681.08698075 1142.95214844 1694.81982422 C1141.23040211 1697.6246601 1139.52109625 1700.43632954 1137.8203125 1703.25390625 C1132.12629822 1712.67844774 1126.193735 1721.89691832 1120 1731 C1118.98044976 1732.50779966 1117.96091943 1734.01561278 1116.94140625 1735.5234375 C1105.48529988 1752.41572173 1093.51064676 1768.87427675 1081 1785 C1080.53384277 1785.60263672 1080.06768555 1786.20527344 1079.58740234 1786.82617188 C1065.35134387 1805.20651653 1050.45529516 1823.08340474 1034.6328125 1840.12109375 C1032.58784307 1842.35721018 1030.58280471 1844.61331054 1028.59375 1846.8984375 C1017.60979544 1859.48810356 1005.79747625 1871.30517235 994 1883.125 C993.36825867 1883.75932953 992.73651733 1884.39365906 992.08563232 1885.04721069 C979.91038467 1897.26176647 979.91038467 1897.26176647 973.7265625 1902.52294922 C970.73012162 1905.08636371 967.87606238 1907.80328484 965 1910.5 C960.07464298 1915.09219402 955.11273466 1919.61633761 950 1924 C948.96587775 1924.89943145 947.93205147 1925.79920324 946.8984375 1926.69921875 C940.52386701 1932.22985742 934.06219497 1937.60350312 927.39648438 1942.77978516 C922.83248876 1946.32716217 918.3476622 1949.96337913 913.875 1953.625 C907.37507457 1958.9277736 900.77584791 1964.05190207 894 1969 C893.37496582 1969.45777832 892.74993164 1969.91555664 892.10595703 1970.38720703 C873.04504679 1984.32809303 853.72048759 1997.82241382 833.68212891 2010.32519531 C831.03684984 2011.97698982 828.39893799 2013.64006326 825.76171875 2015.3046875 C813.06664217 2023.28216826 800.11804734 2030.74240826 787 2038 C786.08508789 2038.50966309 785.17017578 2039.01932617 784.22753906 2039.54443359 C734.2197191 2067.35318403 682.05605918 2089.90093018 627.92803955 2108.34301758 C626.11651011 2108.960299 624.30602096 2109.58063097 622.49560547 2110.20117188 C549.40092072 2135.07254625 472.84884011 2148.95222057 396 2155 C395.24507263 2155.06058594 394.49014526 2155.12117188 393.71234131 2155.18359375 C348.89914641 2158.74657863 302.83808981 2158.6050247 258.02355957 2155.15496826 C256.00532619 2155.00040789 253.9866582 2154.85329998 251.96777344 2154.70751953 C203.09862972 2151.12271112 154.71836211 2142.96847982 107 2132 C106.31375549 2131.84229126 105.62751099 2131.68458252 104.92047119 2131.52209473 C35.27652562 2115.4376246 -31.65476513 2090.03567418 -95.74267578 2058.59716797 C-98.64656254 2057.17330144 -101.55505353 2055.75940114 -104.46484375 2054.34765625 C-116.38721725 2048.52087986 -127.91493176 2042.07562897 -139.42138672 2035.47070312 C-141.63739567 2034.20681012 -143.86177266 2032.96262338 -146.09765625 2031.734375 C-167.44738151 2019.99813873 -187.85385303 2006.67315641 -208 1993 C-209.4622035 1992.01426939 -210.92443988 1991.02858755 -212.38671875 1990.04296875 C-233.75978111 1975.56393797 -254.30666834 1959.81876406 -274.24853516 1943.43554688 C-275.79975281 1942.16412789 -277.35832934 1940.9016989 -278.91796875 1939.640625 C-289.98189682 1930.68489002 -300.69181788 1921.31822444 -311.12109375 1911.6328125 C-313.36521259 1909.58052471 -315.62927871 1907.56736484 -317.921875 1905.5703125 C-329.77356597 1895.23092127 -340.93450461 1884.16784441 -352.0625 1873.0625 C-352.65076569 1872.47682251 -353.23903137 1871.89114502 -353.84512329 1871.28771973 C-365.43358475 1859.73947704 -365.43358475 1859.73947704 -370.58178711 1853.63256836 C-372.14395028 1851.83429239 -373.79976052 1850.16760438 -375.5 1848.5 C-379.21196125 1844.83709551 -382.6017927 1840.95314391 -386 1837 C-386.96949346 1835.88232769 -387.93959772 1834.76518505 -388.91015625 1833.6484375 C-392.27939644 1829.77076787 -395.64071191 1825.88629212 -399 1822 C-399.53915039 1821.37689941 -400.07830078 1820.75379883 -400.63378906 1820.11181641 C-406.90721284 1812.85564599 -413.08763468 1805.5558375 -419 1798 C-419.48662109 1797.38205566 -419.97324219 1796.76411133 -420.47460938 1796.12744141 C-428.97178355 1785.3333907 -437.24077261 1774.39079272 -445.328125 1763.28662109 C-446.8846533 1761.15775952 -448.45546493 1759.04040643 -450.03125 1756.92578125 C-477.07830357 1720.37914636 -500.24117528 1680.81300051 -521.54589844 1640.72021484 C-522.74532364 1638.4764278 -523.96071137 1636.24405372 -525.1953125 1634.01953125 C-531.50769938 1622.54366472 -536.87406337 1610.6086508 -542.30761719 1598.69970703 C-543.9112283 1595.18723702 -545.5376263 1591.6855554 -547.1640625 1588.18359375 C-568.64907646 1541.5491439 -585.87106148 1492.62330833 -599 1443 C-599.20220154 1442.24148743 -599.40440308 1441.48297485 -599.61273193 1440.70147705 C-613.08793235 1390.12586113 -622.44058922 1338.74911907 -627.8125 1286.6875 C-627.96168884 1285.2570636 -627.96168884 1285.2570636 -628.1138916 1283.79772949 C-628.82618423 1276.8715774 -629.44421122 1269.94041962 -630 1263 C-630.0932254 1261.83862518 -630.18645081 1260.67725037 -630.28250122 1259.48068237 C-632.05248244 1236.53209706 -632.34478312 1213.63020035 -632.31567383 1190.62084961 C-632.31106295 1186.6848603 -632.31791148 1182.74918162 -632.33618164 1178.81323242 C-632.51663311 1139.50237496 -630.52710081 1100.36798331 -625.5078125 1061.35546875 C-625.39237091 1060.45193161 -625.27692932 1059.54839447 -625.1579895 1058.61747742 C-614.0133619 973.07365737 -591.93286324 888.79185801 -539 765 C-538.45811035 763.83355957 -537.9162207 762.66711914 -537.35791016 761.46533203 C-530.89476899 747.61690192 -523.95605597 734.12184728 -516.52539062 720.77001953 C-514.97406908 717.95291097 -513.45883891 715.11906626 -511.953125 712.27734375 C-500.40552104 690.52896408 -487.59713677 669.52717725 -474 649 C-473.32066406 647.96746094 -472.64132812 646.93492187 -471.94140625 645.87109375 C-458.3723795 625.36739338 -444.06790483 605.42765394 -429 586 C-428.51789063 585.37609375 -428.03578125 584.7521875 -427.5390625 584.109375 C-421.74238839 576.61533223 -415.77951047 569.29642298 -409.625 562.09375 C-407.16084036 559.2044868 -404.76339 556.26481542 -402.375 553.3125 C-398.74931653 548.85808887 -394.97570347 544.57051399 -391.109375 540.32421875 C-389.25373343 538.27957665 -387.43243624 536.21215851 -385.625 534.125 C-381.84989385 529.79447593 -377.96784362 525.56397854 -374.07373047 521.34082031 C-372.15667382 519.26009005 -370.24757236 517.17302802 -368.34350586 515.08032227 C-361.00987071 507.03695365 -353.42541761 499.27001852 -345.71679688 491.58642578 C-343.73449756 489.6095399 -341.75767367 487.62728961 -339.78125 485.64453125 C-328.6913344 474.548796 -328.6913344 474.548796 -322.74951172 469.50439453 C-319.45003388 466.66719352 -316.33906961 463.6241621 -313.1875 460.625 C-307.78568515 455.51903762 -302.31128023 450.66266152 -296.49609375 446.03125 C-293.97276669 443.97783831 -291.58067727 441.82811943 -289.1875 439.625 C-284.73341271 435.56620413 -280.07597577 431.85057252 -275.31762695 428.16113281 C-271.43158675 425.14327853 -267.63473297 422.04912012 -263.875 418.875 C-258.65068249 414.49508597 -253.28850767 410.36133206 -247.79638672 406.32373047 C-245.76670511 404.82808849 -243.7446925 403.32236724 -241.72265625 401.81640625 C-231.07644948 393.90651543 -220.27951229 386.23675785 -209.39160156 378.6640625 C-193.33973616 367.49526763 -177.4392058 356.24323265 -162.65039062 343.42382812 C-160.88571319 341.90140227 -159.10828705 340.39490853 -157.328125 338.890625 C-151.88593777 334.2819066 -146.51277451 329.70199924 -141.55859375 324.5625 C-139.84067829 322.84027899 -138.03584357 321.26865727 -136.1875 319.6875 C-129.25187826 313.69275718 -122.85779373 307.14796703 -116.90234375 300.18359375 C-114.993342 297.99235766 -113.03051145 295.85714099 -111.05322266 293.72753906 C-105.44376419 287.67891274 -100.13547088 281.45996733 -95 275 C-94.01044978 273.78773339 -93.02086409 272.57549572 -92.03125 271.36328125 C-76.23804338 251.77592507 -62.22149553 230.38422747 -50.23339844 208.27294922 C-49.06026205 206.11105298 -47.86467627 203.96312815 -46.6640625 201.81640625 C-11.82985297 138.74560463 -2.08331119 70.83258041 0 0 Z M380 827 C378.36393799 827.5559082 378.36393799 827.5559082 376.69482422 828.12304688 C318.47447223 847.93923351 267.11666915 878.73253999 215.04931641 910.82373047 C204.07201753 917.58361513 193.05053907 924.26982259 182.02590942 930.9520874 C174.53159782 935.49512478 167.04739852 940.05476017 159.5625 944.61328125 C155.83462693 946.88364496 152.10537318 949.15171537 148.375 951.41796875 C138.33533165 957.51922406 128.31310144 963.647395 118.3125 969.8125 C106.24261446 977.25207322 94.12829706 984.61656543 82.00325012 991.96568298 C77.42707783 994.73976129 72.85487417 997.52030522 68.28466797 1000.30419922 C66.42880084 1001.43438097 64.5723554 1002.56361363 62.71533203 1003.69189453 C58.1339812 1006.4762329 53.55854832 1009.26936214 48.99671936 1012.08560181 C-17.53494884 1053.14150112 -88.58452983 1077.77015361 -167.33984375 1078.2109375 C-168.75924893 1078.22398095 -170.17864713 1078.23780495 -171.59803772 1078.25234985 C-177.52110676 1078.31264157 -183.44414668 1078.36750582 -189.36743164 1078.40136719 C-259.4421256 1078.82395565 -326.52702152 1098.64656351 -381 1144 C-381.52029785 1144.43006348 -382.0405957 1144.86012695 -382.57666016 1145.30322266 C-394.33765957 1155.05599834 -405.4044816 1165.32958035 -414.8984375 1177.34375 C-416.28747166 1179.09940656 -417.70930418 1180.82965543 -419.1640625 1182.53125 C-442.15834667 1209.50687666 -457.09810344 1243.31081463 -464.75 1277.6875 C-464.94883789 1278.57679199 -465.14767578 1279.46608398 -465.35253906 1280.38232422 C-468.46940348 1295.11926551 -469.38059139 1309.55074796 -469.3125 1324.5625 C-469.31001251 1325.44250671 -469.30752502 1326.32251343 -469.30496216 1327.22918701 C-469.24482363 1341.01918486 -468.71943779 1354.44218961 -466 1368 C-465.79020508 1369.06041504 -465.58041016 1370.12083008 -465.36425781 1371.21337891 C-447.96204017 1456.48909952 -411.65822635 1540.18833062 -311 1696 C-310.10780585 1697.15083467 -309.21588637 1698.30188232 -308.32421875 1699.453125 C-303.34443812 1705.86087895 -298.25448694 1712.15068008 -292.98022461 1718.31860352 C-290.13499673 1721.646228 -287.36283697 1725.02019984 -284.625 1728.4375 C-280.00358063 1734.12284325 -275.02046402 1739.43596025 -270.0078125 1744.7734375 C-267.69623155 1747.23883899 -265.44890836 1749.74540233 -263.25 1752.3125 C-260.07799666 1755.99485041 -256.64199564 1759.37341071 -253.18359375 1762.78515625 C-251.22025329 1764.77659461 -249.37920331 1766.81302578 -247.5625 1768.9375 C-241.60592063 1775.85926585 -235.06538841 1782.16230445 -228.12890625 1788.08984375 C-225.48520945 1790.46189464 -222.9935851 1792.97280978 -220.5 1795.5 C-216.79697179 1799.24787894 -213.0235327 1802.84424038 -209.015625 1806.265625 C-206.69885379 1808.25912581 -204.44580016 1810.31554388 -202.1875 1812.375 C-197.94775995 1816.19718989 -193.59812452 1819.84451955 -189.16015625 1823.43359375 C-186.79762313 1825.34423039 -184.45607521 1827.27844765 -182.12109375 1829.22265625 C-166.56760802 1842.15905627 -150.48267644 1854.27566473 -134 1866 C-133.18063965 1866.58458984 -132.3612793 1867.16917969 -131.51708984 1867.77148438 C-121.35893917 1875.00635588 -111.13110164 1882.02528252 -100.46875 1888.49609375 C-97.51270685 1890.29684789 -94.56945188 1892.11785626 -91.625 1893.9375 C-77.60028383 1902.57940935 -63.43676391 1910.8205989 -48.85302734 1918.49560547 C-46.06785813 1919.96421857 -43.29309135 1921.45100905 -40.51953125 1922.94140625 C-4.41009823 1942.22183223 33.26748468 1957.82508445 72 1971 C73.18883789 1971.40669922 74.37767578 1971.81339844 75.60253906 1972.23242188 C129.00625285 1990.36846454 184.73589681 2002.3899563 240.8125 2008.3125 C241.52042694 2008.38795044 242.22835388 2008.46340088 242.95773315 2008.5411377 C248.29954475 2009.09981381 253.64683033 2009.56483409 259 2010 C260.03441223 2010.08613556 261.06882446 2010.17227112 262.13458252 2010.26101685 C282.39398603 2011.90709565 302.53899347 2012.3659974 322.85434723 2012.31805801 C325.29203864 2012.31240247 327.72972304 2012.3095913 330.16741943 2012.30697632 C355.21605754 2012.26795987 380.07602647 2011.68700964 405 2009 C406.21493134 2008.87271515 406.21493134 2008.87271515 407.45440674 2008.74285889 C433.17875318 2006.04548189 458.63411608 2002.04360215 484 1997 C484.75242981 1996.85067017 485.50485962 1996.70134033 486.28009033 1996.54748535 C573.37070659 1979.15632148 657.98267216 1945.79020435 734 1900 C735.06105957 1899.36304199 736.12211914 1898.72608398 737.21533203 1898.06982422 C763.52501134 1882.22932688 788.81103689 1864.92395248 813 1846 C814.15083467 1845.10780585 815.30188232 1844.21588637 816.453125 1843.32421875 C822.86008074 1838.34505845 829.14866853 1833.25531995 835.31640625 1827.98242188 C838.66707476 1825.11800892 842.06270943 1822.32327607 845.5 1819.5625 C850.87503413 1815.19185181 855.92823702 1810.51881613 860.98828125 1805.79296875 C863.40653176 1803.5376955 865.86854061 1801.34489735 868.375 1799.1875 C871.44230707 1796.53729535 874.29180528 1793.73228254 877.12866211 1790.83886719 C878.9219778 1789.07666839 880.77142805 1787.44008815 882.68359375 1785.80859375 C887.16632699 1781.90953362 891.37418841 1777.77355355 895.5625 1773.5625 C896.27857422 1772.85029297 896.99464844 1772.13808594 897.73242188 1771.40429688 C901.81874783 1767.31053447 905.71184695 1763.11107944 909.48803711 1758.73022461 C911.24001827 1756.72533353 913.08490963 1754.84905277 915 1753 C918.88026443 1749.16408145 922.44895289 1745.13958192 926 1741 C926.97974514 1739.87176705 927.96028415 1738.74422324 928.94140625 1737.6171875 C931.75926536 1734.37916963 934.56857279 1731.13389327 937.37304688 1727.88427734 C938.39907679 1726.69596718 939.42626286 1725.50865338 940.45507812 1724.32275391 C947.15391777 1716.5924073 953.4439011 1708.60731674 959.61328125 1700.44921875 C961.87114326 1697.46779226 964.15962139 1694.51468534 966.48046875 1691.58203125 C974.0966284 1681.95297644 981.23802996 1672.11716126 988.05517578 1661.90771484 C989.8842046 1659.17312619 991.72337264 1656.44568948 993.56518555 1653.7197113 C1003.46825323 1639.05395754 1013.14892755 1624.33234164 1022 1609 C1022.47276367 1608.18901855 1022.94552734 1607.37803711 1023.43261719 1606.54248047 C1049.45211339 1561.89676929 1071.46323052 1515.61630102 1089 1467 C1089.25052124 1466.30771301 1089.50104248 1465.61542603 1089.75915527 1464.90216064 C1114.8204792 1395.51945743 1133.55933928 1319.95870696 1137 1246 C1137.08894531 1244.15148438 1137.08894531 1244.15148438 1137.1796875 1242.265625 C1138.4715089 1182.26769765 1115.41821851 1122.29798778 1078 1076 C1077.21109375 1074.9996875 1076.4221875 1073.999375 1075.609375 1072.96875 C1064.20103091 1058.68780128 1051.08290778 1045.92184315 1038.16259766 1033.03222656 C1035.72319743 1030.59856297 1033.28837231 1028.16037891 1030.85481644 1025.72087288 C1028.4941942 1023.35574028 1026.12973962 1020.99445425 1023.765625 1018.6328125 C1022.90398743 1017.7691507 1022.04234985 1016.90548889 1021.15460205 1016.01565552 C1017.5677124 1012.44252811 1013.980284 1008.92771509 1010.13183594 1005.63623047 C1005.09138424 1001.29823455 1000.44925508 996.56088662 995.76849365 991.84365845 C994.0878576 990.15007138 992.40395371 988.45979223 990.71923828 986.77026367 C986.53861989 982.57638982 982.3635102 978.37704601 978.18823242 974.17785645 C974.64814283 970.61792169 971.10593278 967.06012179 967.56097412 963.5050354 C965.91501894 961.85267468 964.27214355 960.19729535 962.62939453 958.54174805 C957.25997595 953.14625748 951.80476147 947.93037349 946 943 C944.4551874 941.5867645 942.91304675 940.17059591 941.375 938.75 C936.33535186 934.20277549 931.05229136 930.0347757 925.69140625 925.87890625 C923.23886691 923.97612989 920.81090354 922.04798518 918.40234375 920.08984375 C847.68247185 862.60081809 760.80697362 824.58015802 578 797 C576.89092285 796.97953613 575.7818457 796.95907227 574.63916016 796.93798828 C508.66243383 795.87028949 442.43231116 805.3424954 380 827 Z " fill="#FFFFFF" transform="translate(650,1332)"/>
<path d="M0 0 C1.95635877 1.01372224 3.92353162 2.00385539 5.89257812 2.99267578 C30.10642005 15.30118677 52.51758282 31.08838303 72.90820312 48.98876953 C73.64039063 49.62169922 74.37257813 50.25462891 75.12695312 50.90673828 C77.06583823 52.58787477 78.98726973 54.2871599 80.90820312 55.98876953 C81.6002182 56.59522308 82.29223328 57.20167664 83.00521851 57.82650757 C89.67938552 63.74025194 95.9973223 69.95794981 102.2771492 76.28255081 C104.11755201 78.13593792 105.96125378 79.98598935 107.80575562 81.83529663 C111.71775893 85.75861682 115.62578079 89.6858876 119.53320312 93.61376953 C124.07432404 98.17862137 128.61713283 102.74176773 133.16419601 107.30070114 C134.96748191 109.110398 136.76769486 110.92311221 138.56777954 112.73599243 C143.6301019 117.82077408 148.70827162 122.82437457 154.17150879 127.48361206 C157.07268117 129.99799884 159.78162924 132.69979452 162.49804688 135.41064453 C163.08687149 135.99614075 163.67569611 136.58163696 164.28236389 137.18487549 C165.51628271 138.41377725 166.74889279 139.64399442 167.98022461 140.87548828 C169.83297781 142.7260592 171.69359018 144.5684703 173.5546875 146.41064453 C190.66061373 163.4323466 206.85233669 182.89919176 207.08398438 208.25048828 C207.03053043 216.62966701 206.01805262 224.77015738 204.84570312 233.05126953 C204.73560913 233.84467743 204.62551514 234.63808533 204.51208496 235.45553589 C193.85687021 311.86623765 171.1343375 387.73665558 134.171875 455.66455078 C132.8813184 458.03821747 131.60540068 460.41938891 130.33007812 462.80126953 C119.89590345 482.16115624 108.37476656 500.87335953 95.90820312 518.98876953 C95.4214209 519.69694824 94.93463867 520.40512695 94.43310547 521.13476562 C76.6591493 546.88504084 56.97814705 571.3778496 35.57568359 594.20361328 C33.77244174 596.13411174 31.98281342 598.07673764 30.19335938 600.02001953 C21.44662838 609.47288666 12.35948703 618.44074115 2.88623047 627.16357422 C1.02637816 628.87972527 -0.82183488 630.60737117 -2.66601562 632.34033203 C-8.29451473 637.61464154 -14.02477933 642.70344476 -20.04492188 647.53173828 C-22.34708346 649.38822499 -24.62362028 651.26372577 -26.88867188 653.16455078 C-93.11128573 708.62863831 -172.92985531 749.11525895 -374.09179688 790.98876953 C-375.08276367 791.0593457 -376.07373047 791.12992188 -377.09472656 791.20263672 C-427.78730468 794.61828637 -479.27428159 790.62679628 -529.09179688 780.98876953 C-530.23100586 780.76995117 -531.37021484 780.55113281 -532.54394531 780.32568359 C-625.59286142 762.15886489 -715.77468068 720.36910504 -797.35498047 654.42138672 C-799.85414093 652.35994821 -802.38225059 650.33460246 -804.90429688 648.30126953 C-809.59034395 644.46659137 -814.07069599 640.43626565 -818.52539062 636.33642578 C-820.76738643 634.28552855 -823.03970716 632.2839942 -825.34179688 630.30126953 C-828.48207837 627.57586262 -831.40586455 624.6961667 -834.31835938 621.73095703 C-836.13980103 619.94161127 -838.02893967 618.27588421 -839.96679688 616.61376953 C-846.60881641 610.87105632 -852.634914 604.61400245 -858.34570312 597.95361328 C-860.18795363 595.88056629 -862.11581349 593.93441152 -864.09179688 591.98876953 C-867.97205375 588.15294308 -871.54686788 584.13360959 -875.09179688 579.98876953 C-875.99751881 578.94664369 -876.9038149 577.90501669 -877.81054688 576.86376953 C-884.83662534 568.76943213 -891.57839526 560.50036441 -898.09179688 551.98876953 C-898.64706055 551.2647998 -899.20232422 550.54083008 -899.77441406 549.79492188 C-913.7341839 531.53836401 -927.1634705 512.89960253 -938.84912109 493.09326172 C-940.07741579 491.01312414 -941.31948152 488.94177226 -942.56445312 486.87158203 C-1025.7484857 347.88533974 -1025.7484857 347.88533974 -1016.66601562 287.14111328 C-1012.15912611 270.13659151 -999.61612944 258.79728577 -985.06787109 250.09619141 C-979.68874673 247.08164877 -974.01319702 244.71012946 -968.09179688 242.98876953 C-966.74637817 242.59141602 -966.74637817 242.59141602 -965.3737793 242.18603516 C-954.63444779 239.44956695 -943.92111495 239.4863836 -932.89816284 239.3928833 C-929.46964423 239.36325401 -926.04176916 239.31595255 -922.61352539 239.26367188 C-918.10763288 239.19537994 -913.60172842 239.13162818 -909.09570312 239.07275391 C-824.70958479 237.93293516 -743.14962287 220.77950478 -666.09179688 185.98876953 C-665.16512207 185.57240234 -664.23844727 185.15603516 -663.28369141 184.72705078 C-633.76579386 171.38279777 -606.20833374 154.06545477 -578.70117188 137.06298828 C-571.79012346 132.7947033 -564.85036796 128.57470483 -557.90429688 124.36376953 C-557.31694763 124.00762573 -556.72959839 123.65148193 -556.12445068 123.2845459 C-553.788985 121.86844401 -551.45346233 120.45243628 -549.11776733 119.03671265 C-541.62342376 114.49368433 -534.13921472 109.93402113 -526.65429688 105.37548828 C-522.9264238 103.10512457 -519.19717006 100.83705416 -515.46679688 98.57080078 C-505.42712823 92.46954529 -495.40492614 86.34132969 -485.40429688 80.17626953 C-476.36096827 74.60268675 -467.29928252 69.06070934 -458.21679688 63.55126953 C-457.34690628 63.02357971 -457.34690628 63.02357971 -456.45944214 62.48522949 C-451.74750064 59.62736881 -447.03429669 56.77159256 -442.32104492 53.91589355 C-438.20237331 51.42032277 -434.08424223 48.92386304 -429.96679688 46.42626953 C-429.38891418 46.07578552 -428.81103149 45.72530151 -428.21563721 45.36419678 C-419.6529038 40.16933817 -411.11612819 34.93396835 -402.59179688 29.67626953 C-345.89303754 -5.26203478 -288.82241913 -31.37994546 -222.09179688 -40.01123047 C-221.22280762 -40.12982422 -220.35381836 -40.24841797 -219.45849609 -40.37060547 C-145.14303543 -50.14168541 -66.17015819 -34.47075201 0 0 Z " fill="#FFFFFF" transform="translate(1389.091796875,2362.01123046875)"/>
<path d="M0 0 C1.4284517 -0.00313852 2.856901 -0.00758898 4.28534508 -0.0132131 C8.18173293 -0.02480356 12.07789522 -0.01795431 15.97427905 -0.00787924 C20.22425676 -0.00022677 24.47420153 -0.01006557 28.7241745 -0.01760924 C36.16332545 -0.02841754 43.60241102 -0.02813212 51.04156494 -0.02046776 C62.10400339 -0.0091015 73.16638687 -0.01493129 84.22882497 -0.02409268 C103.98845061 -0.03987794 123.74804713 -0.03852549 143.50767553 -0.02985594 C160.79975718 -0.02230637 178.09182817 -0.02034053 195.38391113 -0.02392387 C197.10510093 -0.02426761 197.10510093 -0.02426761 198.86106223 -0.02461828 C203.51909017 -0.02555231 208.17711811 -0.02650752 212.83514604 -0.02749758 C256.52230231 -0.03667256 300.20944004 -0.02835737 343.89659345 -0.01220688 C382.70170211 0.0020297 421.50678124 0.00075581 460.31188965 -0.01358986 C503.9196442 -0.02965715 547.52738237 -0.03602185 591.13513947 -0.02675307 C595.78463236 -0.02579093 600.43412526 -0.02485241 605.08361816 -0.02392387 C606.80082724 -0.02356803 606.80082724 -0.02356803 608.5527274 -0.02320499 C625.83304835 -0.01979398 643.11335745 -0.02378079 660.39367676 -0.03136253 C680.04408667 -0.03994122 699.69446294 -0.03779384 719.34486866 -0.0215203 C730.33965195 -0.01271506 741.33436234 -0.0121312 752.32914373 -0.02345882 C759.67657708 -0.03019324 767.02395207 -0.02598615 774.37137678 -0.01294452 C778.5553656 -0.00581983 782.73920975 -0.00334373 786.92319393 -0.01416247 C790.7370874 -0.02392341 794.55070921 -0.01963659 798.36458325 -0.00462049 C800.36649117 -0.000222 802.3684154 -0.01036628 804.37029839 -0.02128333 C816.04955745 0.05063989 828.08692336 1.36839437 838.48376465 7.06502342 C839.14577881 7.41387596 839.80779297 7.7627285 840.48986816 8.12215233 C857.70671767 17.4205454 869.88042255 30.86794527 876.60876465 49.31502342 C882.75692715 69.9181991 880.73195411 90.58695116 870.59313965 109.40877342 C860.87450572 126.37938293 845.14340339 137.78542812 826.42126465 143.19002342 C817.46692455 145.53893617 808.59063839 145.52147271 799.39412689 145.50895119 C797.98096081 145.51060257 796.56779517 145.51268964 795.1546303 145.51517129 C791.26810433 145.52072523 787.38160045 145.52006786 783.49507179 145.5183937 C779.26787187 145.51766169 775.04067813 145.52268767 770.81348085 145.52696872 C762.42788246 145.53454468 754.04229042 145.53674157 745.65668896 145.53729777 C735.61291578 145.53821181 725.56914849 145.54488052 715.52537785 145.5516446 C691.25037446 145.56770268 666.9753717 145.57360759 642.70036396 145.57839335 C631.21649416 145.58072941 619.73262485 145.58433207 608.24875544 145.58808872 C568.93738042 145.60092385 529.62600567 145.61164324 490.3146286 145.61509132 C487.8470115 145.61531296 485.37939439 145.61553474 482.91177729 145.61575668 C480.43820669 145.61597732 477.9646361 145.6161978 475.4910655 145.61641812 C470.52867095 145.61686068 465.56627639 145.61730779 460.60388184 145.6177578 C458.75830459 145.61792188 458.75830459 145.61792188 456.87544296 145.61808928 C416.97824086 145.62172009 377.08105693 145.63764123 337.18386178 145.66094816 C295.00091981 145.68554531 252.81798821 145.6992641 210.63503885 145.70045924 C206.0042359 145.7006307 201.37343295 145.70084612 196.74263 145.70109367 C195.03228272 145.70117733 195.03228272 145.70117733 193.28738296 145.70126267 C174.93978754 145.70241319 156.59221078 145.71343527 138.24462166 145.72798073 C119.80221901 145.74234852 101.35984027 145.7455811 82.91743356 145.73754075 C71.96288435 145.7330859 61.0084123 145.73693937 50.05387323 145.75277926 C42.73174123 145.76253688 35.40966322 145.76134352 28.0875317 145.75134303 C23.91868457 145.7459567 19.74998551 145.74522246 15.58115071 145.75785175 C11.7797477 145.76927142 7.97861189 145.76657884 4.17721771 145.75318468 C2.18437333 145.74964536 0.19151876 145.76065915 -1.80129373 145.77247596 C-23.32603271 145.64879486 -42.65582953 139.43986454 -58.64123535 124.59627342 C-72.00132829 110.64676462 -79.94021986 91.73330001 -79.76623535 72.37752342 C-78.86694343 51.4792055 -71.24522964 32.7957195 -55.76623535 18.37752342 C-38.8533851 4.75268599 -21.33705101 -0.1163593 0 0 Z " fill="#FFFFFF" transform="translate(575.7662353515625,996.6224765777588)"/>
<path d="M0 0 C3.63462734 3.04386314 6.99526477 6.31129366 10.32714844 9.68164062 C11.12765625 10.47183594 11.92816406 11.26203125 12.75292969 12.07617188 C29.7936431 29.8232361 38.11682047 54.69687491 37.72924805 79.09790039 C36.69228396 105.87284501 25.75985897 130.29379299 6.22558594 148.65820312 C-13.95143796 166.85805814 -39.64210015 174.78566464 -66.61035156 173.49414062 C-87.51182309 171.62835955 -106.74142395 163.21422807 -122.67285156 149.68164062 C-123.64738281 148.91078125 -124.62191406 148.13992188 -125.62597656 147.34570312 C-128.90838196 144.60575786 -131.50579339 141.49623724 -134.11035156 138.11914062 C-134.58553223 137.50562744 -135.06071289 136.89211426 -135.55029297 136.26000977 C-147.49562319 120.56327028 -154.64927405 102.4708059 -155.67285156 82.68164062 C-155.72570312 81.81796875 -155.77855469 80.95429687 -155.83300781 80.06445312 C-156.69006654 53.16026171 -146.30293869 29.22074602 -128.62597656 9.38476562 C-95.76226471 -25.39799509 -37.5786805 -29.61542246 0 0 Z " fill="#FFFFFF" transform="translate(747.6728515625,585.318359375)"/>
<path d="M0 0 C9.12271263 7.76663373 17.00995527 18.72896462 18.3125 30.96875 C19.24800911 45.93689573 16.85774723 58.97348077 7.015625 70.70703125 C-3.14731621 81.35918236 -15.33635245 87.02474662 -30.1875 87.46875 C-43.8614308 87.03264727 -55.48498844 81.94807692 -65.5 72.65625 C-75.37102342 62.05140949 -78.91639505 49.23654151 -78.6875 34.96875 C-77.2218307 21.77772633 -71.87668711 9.56209552 -61.40234375 1.12890625 C-42.86990686 -12.41953679 -18.94751708 -14.33209625 0 0 Z " fill="#FFFFFF" transform="translate(1149.6875,384.03125)"/>
<path d="M0 0 C11.05234679 8.26879279 18.02478134 19.2732651 20.53515625 32.90625 C22.21893006 47.61507869 18.33483818 61.28832574 9.1875 72.9375 C-0.63062681 83.2778676 -13.76410423 88.79321904 -27.875 89.3125 C-41.42757689 88.97262346 -53.01532638 83.61046636 -62.7421875 74.38671875 C-72.98934526 63.55451565 -76.53390087 51.04082781 -76.2734375 36.46875 C-75.74940525 24.28629738 -70.47971491 15.18224246 -62.5625 6.25 C-44.45677945 -9.64770585 -20.97064447 -13.24287942 0 0 Z " fill="#FFFFFF" transform="translate(429,47)"/>
</svg>
