<?xml version="1.0" encoding="UTF-8"?>
<svg version="1.1" xmlns="http://www.w3.org/2000/svg" width="512" height="512">
<path d="M0 0 C0.99261337 0.00222061 1.98522675 0.00444122 3.00791931 0.00672913 C4.12900589 0.00680466 5.25009247 0.00688019 6.40515137 0.00695801 C8.2348069 0.01469994 8.2348069 0.01469994 10.10142517 0.02259827 C11.96377052 0.02472069 11.96377052 0.02472069 13.86373901 0.02688599 C17.16982383 0.03154861 20.47584039 0.04053955 23.78190613 0.05158997 C27.15338042 0.06180625 30.52486175 0.06638407 33.89634705 0.07142639 C40.51550667 0.08248056 47.13463385 0.09923715 53.75376892 0.12025452 C53.94205261 1.07214661 54.1303363 2.0240387 54.32432556 3.004776 C54.58076843 4.25846985 54.8372113 5.5121637 55.10142517 6.80384827 C55.35158386 8.04449036 55.60174255 9.28513245 55.85948181 10.56336975 C58.19246101 19.84242351 63.73372774 26.92161069 71.44126892 32.43275452 C91.60004763 47.23018857 103.7970902 66.03725277 108.21080017 90.67103577 C108.49837972 92.82979958 108.66295635 94.94470117 108.75376892 97.12025452 C108.79372986 97.94396545 108.8336908 98.76767639 108.87486267 99.61634827 C109.44269557 122.63028161 101.39692098 144.24674218 85.75376892 161.12025452 C69.84874387 177.63984777 48.67564327 186.60243268 25.78160095 187.13148499 C2.7943463 187.00417777 -17.30669113 177.46287169 -33.93373108 161.93275452 C-50.23956149 144.9475145 -57.66869712 122.39812549 -57.46107483 99.19056702 C-56.6015423 77.03491484 -46.73579531 56.37643528 -30.98841858 40.90150452 C-27.34390677 37.59985619 -23.54884309 34.57594898 -19.62123108 31.62025452 C-11.35117351 25.22647528 -5.54858119 18.07773316 -3.82044983 7.51869202 C-3.59399237 5.38931593 -3.41564946 3.25492614 -3.24623108 1.12025452 C-2.24623108 0.12025452 -2.24623108 0.12025452 0 0 Z M11.00376892 82.18275452 C-6.7394818 93.28776142 -6.7394818 93.28776142 -17.80873108 93.62025452 C-26.15219489 94.12591899 -32.21345077 95.95036556 -38.24623108 102.12025452 C-42.04516392 107.51190765 -43.25166283 112.61572668 -42.24623108 119.12025452 C-37.67132643 137.8825039 -25.6970884 153.87898408 -9.55873108 164.37025452 C6.32480564 173.42134925 25.83950495 175.87842957 43.56626892 171.62025452 C62.55895062 165.70821585 76.74761216 154.25605479 86.75376892 137.12025452 C91.97351203 126.83775306 96.85145346 113.8144329 94.75376892 102.12025452 C92.42550889 95.81204137 88.60997334 91.23729496 83.87876892 86.55775452 C83.22328064 85.90589172 82.56779236 85.25402893 81.8924408 84.58241272 C72.16895651 75.29126457 60.24206313 69.77055804 46.62876892 69.74525452 C45.95845642 69.72076233 45.28814392 69.69627014 44.59751892 69.67103577 C31.93921388 69.60045042 21.3959742 75.62999778 11.00376892 82.18275452 Z " fill="#FFFFFF" transform="translate(228.24623107910156,215.87974548339844)"/>
<path d="M0 0 C2.52990414 2.23294893 4.85768898 4.57231731 7.1875 7.01171875 C7.92742187 7.65238281 8.66734375 8.29304688 9.4296875 8.953125 C12.41771037 11.73768328 14.1063961 13.58631766 14.34375 17.7578125 C12.3053199 32.8304351 4.26518925 46.52984828 -7.34375 56.23046875 C-17.9669207 63.89528812 -31.62089629 68.65375054 -44.8125 67.01171875 C-60.91956198 64.09961459 -74.44558308 57.47506672 -84.125 43.63671875 C-88.46438387 36.56513022 -92.75717129 29.51376037 -91.8125 21.01171875 C-86.87629807 17.76792891 -82.45520823 17.62703761 -76.6171875 17.515625 C-66.5661229 16.18442651 -58.187166 11.87893184 -49.6875 6.57421875 C-33.80328049 -3.18772379 -17.6251035 -12.45996901 0 0 Z " fill="#FFFFFF" transform="translate(293.8125,306.98828125)"/>
<path d="M0 0 C0.73689056 -0.00511093 1.47378113 -0.01022186 2.23300171 -0.01548767 C4.6697399 -0.02939234 7.10619559 -0.02842648 9.54296875 -0.02612305 C11.23543402 -0.03000911 12.92789831 -0.0343436 14.62036133 -0.03910828 C18.16783815 -0.04657207 21.71521546 -0.04627778 25.26269531 -0.04101562 C29.8126223 -0.03521656 34.36214281 -0.05216158 38.91200256 -0.0753603 C42.40696603 -0.09007803 45.90183111 -0.0909721 49.39682007 -0.08785057 C51.07458299 -0.08836463 52.7523513 -0.0936183 54.43008423 -0.10366249 C56.77397245 -0.11597379 59.11706244 -0.10926816 61.4609375 -0.09765625 C62.50367325 -0.10912186 62.50367325 -0.10912186 63.56747437 -0.12081909 C66.43689588 -0.08933443 68.282602 -0.05684219 70.63012695 1.68074036 C72.00217937 3.668249 72.58743893 4.84315123 72.73046875 7.2746582 C70.46893029 11.90542743 70.46893029 11.90542743 67.73046875 13.2746582 C65.4190247 13.39259893 63.10413185 13.44454745 60.78979492 13.4675293 C60.07577011 13.47570679 59.3617453 13.48388428 58.62608337 13.49230957 C56.2585433 13.51716122 53.89106318 13.53367901 51.5234375 13.5480957 C50.71510279 13.55341938 49.90676807 13.55874306 49.07393837 13.56422806 C44.79531426 13.59095884 40.51671932 13.6103338 36.23803711 13.62475586 C31.81925106 13.64140256 27.40121103 13.68617989 22.98270702 13.7371273 C19.58461147 13.77078825 16.18669325 13.78233195 12.78844643 13.78798294 C11.15973523 13.79469883 9.53103584 13.80992985 7.9024868 13.83387375 C5.62081551 13.86550571 3.34115929 13.86556632 1.05932617 13.8581543 C-0.8868737 13.87028458 -0.8868737 13.87028458 -2.87239075 13.88265991 C-7.15237586 13.11665148 -8.6533828 11.68618256 -11.26953125 8.2746582 C-11.26953125 5.0871582 -11.26953125 5.0871582 -10.26953125 2.2746582 C-6.68938892 -0.11210335 -4.13307591 -0.01472955 0 0 Z " fill="#FFFFFF" transform="translate(223.26953125,187.725341796875)"/>
<path d="M0 0 C2.4375 1 2.4375 1 4 3 C4.89967847 5.71667616 5.25046198 8.14473346 5 11 C3.23535939 13.85993478 2.00434303 15.49782849 -1 17 C-4.97357645 17.52981019 -6.54170381 17.31881474 -9.875 15 C-12.81148802 10.85436985 -12.7152453 9.00671711 -12 4 C-9.11723615 -0.80460641 -5.11738089 -0.83012955 0 0 Z " fill="#FFFFFF" transform="translate(233,151)"/>
<path d="M0 0 C3.125 0.375 3.125 0.375 6 1 C6.625 3.875 6.625 3.875 7 7 C5 9 5 9 2.5 9.25 C0 9 0 9 -2 7 C-2.25 4.5 -2.25 4.5 -2 2 C-1.34 1.34 -0.68 0.68 0 0 Z " fill="#FFFFFF" transform="translate(264,134)"/>
<path d="M0 0 C0.625 2.875 0.625 2.875 1 6 C-1 8 -1 8 -3.5 8.25 C-6 8 -6 8 -8 6 C-7.75 2.9375 -7.75 2.9375 -7 0 C-4.3333581 -1.33332095 -2.83319697 -0.67102033 0 0 Z " fill="#FFFFFF" transform="translate(208,106)"/>
</svg>
